<?xml version="1.0" encoding="UTF-8"?>
<svg id="Capa_2" data-name="Capa 2" xmlns="http://www.w3.org/2000/svg" viewBox="0 0 473.63 695.12">
  <defs>
    <style>
      .cls-1 {
        fill: #eee;
      }

      .cls-2 {
        fill: #e8e8e8;
      }
    </style>
  </defs>
  <g id="Capa_1-2" data-name="Capa 1">
    <g>
      <path id="Loreto" class="cls-2" d="M164.89,209.83h-9.12c-4.23-3.33-7.1-8.04-13.36-8.71-4.09-.44-5.05-5.55-5.79-8.86-.8-3.56-1.54-7.26-2.06-10.92-.58-4.12-.1-8.29,3.46-11.06,1.7-1.33.96-3.79,3.29-4.91-1.47-5.89,2.51-11.39,1.6-17.46-.21-1.37.55-3.24-.12-4.12-5.33-6.99-2.75-16.5-7.86-23.67-1.87-2.63.82-7.06-2.38-9.46,2.12-4.21,6.16-3.73,9.2-4.86,9.45-3.53,19.11-6.51,28.69-9.68,3.4-1.12,6.61-2.67,8.93-4.62,7.69-6.47,16.32-11.82,23.12-19.36,4.39-4.87,7.76-10.66,13.03-14.75,1.57-1.22,2.58-3.58,2.65-4.69.39-5.91,3.03-11.21,3.92-17.03,1.72-1.07,3.7-.27,5.57-.51.79-.79,1.58-1.58,2.55-2.55-2.83-5.25-1.29-11.06-1.77-16.77-1.24-2.6-5.26-2.14-6.17-4.73-.89-2.56-.91-5.38-4.13-6.81,2.73-1.98,5.58-.39,8.02-1.22,1.87-1.54,3.01-4.46,7.45-2.32,1.86,1.72,4.3,5.16,8.64,5.86.81-.49,1.64-.98,2.45-1.47,1.24,1.27.22,2.77.8,4.4,9.19,2.57,14.1,9.72,16.38,18.49,1.03,3.98,2.69,6.01,6.28,7.42,3.12,1.23,5.84,3.55,8.99,4.58,1.94.64,1.46,1.91,2.11,3.24h6.82c3.88,3.02,3.83,8.16,7.52,10.78-1.57,2.3-1.61,4.81-1.02,7.33,2.84,1.36,5.63,2.7,8.55,4.1.63-.49,1.26-.99,1.91-1.5,2.98,2.35,1.93,6.68,4.45,9.42-1.18,1.98-1.41,4.49-3.34,6.15,2.1,1.41,1.15,4.89,5.83,5.89-.21,0,1.44,0,2.82,0,1.62.55,1.2,1.84,1.52,2.78,2.56,1.91,4.49-.13,6.84-1.17.75.57,1.58,1.19,2.77,2.1,4.79-4.1,9.14-1.28,13.31,1.42,2.08-.08,3.17-2.4,5.38-1.72,2.7.83,3.72-1.83,5.56-2.77,1.57-.8,3.69-.54,5.57-.75.63-3.16,3.27-4.67,4.76-6.39,2.13-.36,2.54,1.24,3.45,1.42,1.61.31,3.33.09,4.99.09.67,3.16,4.68,3.63,5.29,6.81,3.53-.04,6.56-2.45,10.15-1.98,1.41-3.79,6.02-2.11,8.01-4.62,4.5,2.58,9.22,4.89,11.59,10.04.81-.72,1.39-1.23,2.02-1.79,3.01-.78,3.87,2.51,5.93,3.61,2.2,1.18,4.77.66,6.6,2.17.12.9-.31,1.82.72,2.41,1.24.15,2.56.3,3.85.45.89,1.35.91,3.05.29,4-5.6,8.62-11.4,17.11-17.12,25.65-2.18,3.26-2.9,7.44-6.43,9.63,1.39,5.13,6.77,4.31,9.26,7.26,2.01-1.1,4.01-2.19,5.91-3.23.66.27,1.21.38,1.59.69.65.52,1.59,1.09,1.73,1.77.86,4.17,3.11,6.94,7.01,8.82,1.45.69,3.42,2.03,3.3,4.36-2.17,3.73-3.5-1.23-5.33-.47-1.44.08-1.83,2.25-2.8,1.93-1.59-.52-2.22-1.01-1.97-2,.58-2.34-1.03-3.55-2.54-4.95-3.52,0-7.15.12-10.77-.03-3.28-.14-5.89,3.12-9.38,1.41-1.07,2.37-2.04,4.49-3.14,6.92h-13.31c-1.45.84-1.08,1.76-1.24,3.21-5.03-.74-9.57,2.45-14.76,1.92-6.37-.65-11.32,2.33-15.83,6.33-1.25,1.11-2.38,2.36-3.66,3.64h-4.62c-2.95,1.19-3.17,4.6-6.06,5.92-2.38,1.09-4.04,3.77-6.11,5.84h-6.86c-1.14,1.37-2.39,2.85-3.76,4.5,3.67,2.98.09,5.84-1.03,8.72-1.1,2.84-1.31,2.75.43,6.26-.51.69-1.18,1.27-1.41,2-.24.76-.05,1.66-.05,3.1-5.44,3.41-6.44,10.22-10.45,15.91,4.13,2.66,3.32,7.75,5.66,12.1-1.66,1.15-3.46,2.4-6.15,4.26-3.5-.75-6.49,3.31-10.31,5.59-3.7,2.21-7.48,4.26-8.6,9-.88,4.44-.31,8.93,1.62,13.2-2.67,2.09-5.59.41-8.13,1.33-1.18,1.16-.28,2.64-.65,4.22-3.87,2.18-6.05-1.94-9.17-2.52-4.33.18-8.41-.55-11.89-3.48-.79.79-1.58,1.58-2.19,2.19-1.53,7.08,3.31,13.49,1.06,20.73-4.17,1.9-9.03,2.79-13.88,3.9-4.85,1.11-9.04,5.11-13.79,3.06-3.19,3.19-5.88,5.89-8.96,8.97-.14.7,1.05,1.22,1.7,2.08-1.56,1.96-2.69.63-4.14-.83-2.64,3.71-7,5.23-11.51,9.71,1.36-4.29,1.65-7.3,3.17-9.42,1.72-2.4,3.28-4.75,4.38-8.02-4.25-7.89-6.77-16.98-11.77-25.09-1.1-5.66,1.49-11.88-1.86-17.52,1.32-3.27,3.02-6.27,6.44-8.63,2.52,2.06,7.32,1.61,7.19,6.65,6.53,1.62,7.01-4.16,9.94-7.48-1.44-5.41,1.53-10.77,1.74-16.24-1.28-1.97-3.86-2.79-3.62-5.47-2.97-3.12-7.41-2.13-11.04-3.76-3.25-1.46-7.67-.31-11.5-.31-2.25-2.25-4.43-4.43-6.39-6.39-5.92-2.23-8.49,4.02-13.69,4.79-3.89-3.79-4.76-10.31-10.79-13.44Z"/>
      <path id="Ucayali" class="cls-1" d="M270.55,396.24c-.66-2.23-2.11-3.21-4.26-3.77-1.28-4.07-7.01-7.56-2.34-13.29-1.15-1.93-2.79-3.81-3.42-5.98-.59-2.04-.13-4.4-.13-5.67-2.89-6.06-5.84-11.03-9.74-15.75-1.94-4.94,1.54-9.7,1.37-14.77-.18-5.26,4.24-8.9,5.5-13.57-1.23-1.1-2.06-1.84-3.1-2.78h-8.26c-1.53.62-2.32,2.49-4.18,3.35-5.9,2.74-9.43,7.92-12.65,13.32-2.31,3.88-3.95,8.42-9.78,8.52-1.79.03-2.35,2.98-3.74,3.15-2.42-2.41-4.54-4.53-7.49-7.47v-3.37l-3.34-3.34c0-1.84-.37-4.11.1-6.2.53-2.32-2.19-3.16-1.67-5.76,4.16-2.2,7.73-5.82,10.9-9.13,2.87.37,3.45,2.71,5.25,3.46,1.27-.25,2.79.61,3.94-.91-.18-2.92-2.77-4.9-3.5-8.03,1.48-1.61,4.33-1.75,5.56-4.29h6.08c3.79-1.95,6.57-3.38,9.98-5.14h7.39c2.22-1.28,3.25-4,6.44-3.9-.62-7.09,1.22-14.13-2.42-22.09,3.58,1.48,6.09,1.86,8.29,4.13,6.01-1.21,10.47,1.86,14.66,6.17,2.8,2.88,4.95,6.71,9.34,7.7-.16,1.74-1.54.95-2.36,1.28q-.57,4.62,4.04,7.06c1.42,4.16,2.92,8.57,4.5,13.21,3.08,2.34,8.23,3.17,7.68,9.06-.08.89,1.66,2.3,2.84,2.89,5.8,2.9,8.02,8.83,12.02,13.67-2.09,2.06-1.74,6.2-6,6.24.27,3.31-4.35,4.09-3.93,8.21,5.54,0,11.04-.05,16.55.01,5.08.06,9.14,4.55,14.25,3.25,1.62,1.58,3.02,2.94,4.4,4.28v5.06c1,1,1.99,1.99,2.98,2.98,1.31,2.3-1.37,5.88,4.76,7.92,6.48,0,15.36-.18,24.23.11,2.64.09,4.34-1.8,6.82-2.11,1.33-.17,5.21-.24,4.86-3.88,7.02-2.24,11.18-8.23,16.04-12.63,4.05.34,3.55,4.17,5.6,5.74-.32,1.48-1.65.81-2.83,1.34v6.99c-3.84,1.31-5.92,4.28-8.59,6.81v8.22c-3.29,2.59-4.53,6.65-8.44,9.15-3.81,2.43-7.38,4.9-11.75,6.24-4.74,1.45-8.29,5.17-13.19,6.68-4.48,1.38-8.32,1.32-12.99-1.1-.54,1.03-1.19,2.28-1.83,3.52-1.25,1.1.37,1.76,1.37,3.4-3.1,1.89-.49,7.35-4.47,8.35-2.03.39-2.35-.57-2.97-1.03-2.95.53-5.12,2.28-7.06,4.53-5.43.49-10.18-2.25-15.28-3.36-1.11-1.47-1.2-3.59-3.09-4.72-4.42,3.54-9.49,5.28-15.47,4.68-.6-.66-1.34-1.49-2.39-2.65.26-8.18.88-17.11-11.53-18.31-1.39,2.06-5.3,3.37-5.56,7.75-6.81-.85-12.82,1.39-18.89,3.3-1.96-1.47.23-4.62-2.65-5.77,3.77-4.53,9.15-6.75,13.54-10.95Z"/>
      <path id="Madre_de_Dios" class="cls-2" d="M362.6,481.91c-2.57-1.56-4.37-2.66-6.6-4.01.8-5.08-.48-9.92-2.51-14.88-3.11-2.32-8.35-3.2-7.51-9.03-2.4-1.63-5.5-1.93-8.14-4.8-1.34-4.27.77-8.95,2.74-12.89,3.73-7.47,5.55-15.62,9.38-23.2h7.34c7.81-3.56,14.56-7.39,21.76-10.4,3.82-1.6,7.05-4.67,10.41-7.26,1.76-1.36,3.2-3.13,4.78-4.71.32-3.97,3.49-7.42,1.71-12.2,1.74-1.16,3.52-2.36,5.4-3.61v37.36c2.16,1.21,3.14.3,4-.85,7.21,5.83,7.86,5.9,16.74,1.8,2.58-1.19,5.16-2.41,8.2-3.82,3.07,1.55,6.73,2.31,10.46,1.75,3.74,3.04,3.87,8.38,7.67,11.22,4.94,11.52,12.49,21.61,17.99,32.83,1.95,3.97,4.2,7.8,6.56,11.54.69,1.1.47,2.07.64,3.1-.08,2.24-2.55,2.7-3.21,4.52.33.33.73.73,1.49,1.49-3.67,1.29-5.78,4.29-8.37,6.74v6.75c-7.41,3.7-14.83,7.4-22.5,11.22-7.95-3.82-15.89-7.63-23.82-11.44-3.65-1.33-8.01.76-11.68-2.24-1.49,1.08-2.55,2.57-2.83,4.52-5.29,2.23-9.95-2.6-14.94-1.12-1.68-1.26-3.08-3.17-4.69-3.36-7.1-.86-12.84-7-20.48-5.01Z"/>
      <path id="Cuzco" class="cls-2" d="M316.41,501.32c-3.74,3.18-7.44,1.94-10.76,2.3-3.42-1.35-3.98-5.16-6.35-7.06-2.23-1.8-4.81-3.65-5.1-6.16-.39-3.41-2.78-5.64-3.55-8.65-.9-3.57-1.39-6.91-5.74-8.61-2.43-.95-2.21-5.05-4.12-7.34-.69-.83-.77-2.47-1.97-3.34,2.09-2.13,5.71.68,7.45-2.37,4.19.3,3.65-4.12,5.83-5.83-2.19-3.98,1.06-5.87,3.36-8.47v-7.06c-1.62-.83-3.6-1.14-4.81-3.26,4.01-2.73,5.3-7.86,9.31-10.81h10c1.01-1.01,2-2,3.43-3.43.91,4.66,4.77,5.45,7.92,7.08.9-.81,1.5-1.36,2.48-2.26.98,1.31,1.98,2.64,2.72,3.62,4.77.3,7.59-2.16,10.23-4.94,1.88.11,3.83-.55,5.62.44.11.56.37,1.11.28,1.59-.24,1.29-1.18,2.45-1.8,3.41-4.14,6.36-6.06,13.08-4.59,20.79,1.03.82,2.22,1.74,3.7,2.49,1.92.97,4.38,2.55,4.4,5.5.03,4.29,3.26,4.29,6.34,4.68,1.12,3.05,2.26,6.13,3.38,9.17-.47.6-.95,1.23-1.36,1.75.72,3.87,3.19,6.33,5.66,8.61,10.75,1.7,20.96,4.65,31.03,10.34,5.09-1.39,10.35,2.51,16.14,1.68,1.66-1.32,3.2-2.76,2.94-5.02,1.8,0,.68-.54,1.56-.07,3.08,1.67,1.11,2.89-.18,4.24,1.5,1.08,1.87,2.59,1.54,5.23-5.88,4.31-8.92,11.35-12.15,18.91-.77.9-2.28-.08-3.65.27-2.04,1.1.23,3.8-1.72,5.03-1.15.72-1.25,2.35-.75,2.94,3.73,4.41-.03,8.64-.14,12.92-1.71,2.61-5.21,3.84-5.17,7.99.02,1.89-2.13,3.71-4.59,3.09-.84,4.22.55,6.37,4.21,6.83,1.74,3.4-.09,6.31-1.16,9.22-1.19,3.24,4.01,5.71.88,9.04-6.06.32-2.47-7.55-5.57-8.07-2.89-.6-3.53.39-4.21,1.07-2.31-1.16-4.57-2.29-6.67-3.34-2.98.72-5.14,2.2-7.36,3.63-2.42.38-2.97-3.32-5.79-1.57.57-2.58-.72-4.55,2.34-5.68-3.38-2.84-5.71-5.93-7.48-9.41h-4.03c-1.23,1.33-.34,2.81-.89,4.66-3.07.5-6.79-.38-8.44,2.04-7.28-.76-2.82-7.18-6.3-9.22,2.05-3.39,5.49-4.73,9.45-6.63-.34-3.66,4.02-5.03,5.84-8.38,2-3.7.54-7,1.32-9.62-2.81-6.73-8.11-10.21-13.16-13.98-.97-.73-1.94-.73-2.94-1.05-3.73-1.2-7.97-1.69-10.3-5.44-1.54-2.48-5.27.27-6.53-3.46Z"/>
      <path id="Puno" class="cls-2" d="M386.4,552.45c1.42-2.17,5.19-3.6,3.65-6.85,9.75-6.27,5.71-15.82,7.07-24.46,4.86-2.01,7.7-5.9,8.69-11.77.7-4.14,4.81-6.53,7.92-9.87v-8.64c2.15-1.06,3.58-.73,5.55.34,7.12,3.87,14.5,7.25,21.77,10.81,7.69-3.87,15.36-7.73,23.32-11.73v18.02c-1.25,1.2-2.87,2.76-4.52,4.34.23.47.32,1.05.63,1.22,3.37,1.86,3.15,5.77,3.87,8.54.71,2.75,2.55,4.09,3.74,6.13.3,3.58-1.1,5.86-4.97,5.92v5.27c-2.97,2.82-5.82,5.52-8.58,8.13v6.1c-2.06.77-3.97,1.22-5.05,3.19v8.52c2.71,2.59,5.56,5.32,8.88,8.49-7.96,1.3-5.43,9.93-10.54,13.4-.66,4.51,1.73,8.61,2.71,12.96.16.72.62,1.47.58,2.28-.31,5.67,3.04,9.02,7.68,10.95,1.62.67,2.81,1.5,3.85,2.41,1.59,2.86-1.16,4.62-1.41,7-.27,2.61,3.45,4.07,1.49,6.99-.93,1.68-2.99.05-5.15,1.77-3.85,8.68-12.3,14.76-19.59,22.04-.79-.58-2.18-2.45-3.7-2.55-8.79-.6-9.7-7.74-12.26-13.55,1.27-3.12,4.79-4.24,5.69-7.63-2.28-1.08-4.35-2.06-6.53-3.09-.62-3.04-3.34-4.71-5.72-7.3.8-3.48-.88-6.97-1.64-10.64-1.06-5.09-6.41-2.9-8.51-5.71-1.32.92-2.19,1.52-2.94,2.04-4.62-.76-5.89-5.1-8.86-7.59v-6.92c-.97-.83-2.04-1.74-2.35-2.01-2.11-2.86.25-5.93-2.54-7.79,1.13-2.21,2.27-4.44,3.47-6.8-3.68-6.19-1.1-13.04-2.26-19.18-1.07-1.02-2.6-.06-3.42-2.77Z"/>
      <path id="Arequipa" class="cls-1" d="M313.79,568.83c-.39-2.88.84-5.82-1.55-8.37.56-.6,1.26-1.36,2.09-2.27.8.5,1.61,1.01,2.44,1.52,4.22-.42,3.76-3.99,3.99-7.52,3.83,2.15,7.13,3.46,10.48,2.04,1.5,1.85,1.52,4.04,3.93,5.45,2.28-.46,5.37,1.09,8.23-1.52,1.24,1.11,2.57,2.3,3.71,3.32,3.99-.8,3.87-3.77,4.61-6.67.54,2.72,2.9,3.87,4.35,5.8-2.65,1.83-1.4,4.5-1.52,6.78,4.36,3.55,9.46,2.24,14.29,2.51,1.06-1.67,2.65-1.9,4.4-1.73,1.77.42,2.52,2.08,3.81,3.1,1.31-.02,1.79-2.08,4.05-1.13-.04,3.71,2.42,6.48,5.49,8.83v9.25c1.56,1.21,3.51,2.72,5.39,4.18-.93,1.09-1.46,1.71-2.05,2.4,1.17,2.11,1.41,4.63,3.43,6.35v11.81c-3.63,4.23-5.84,10.51-12.97,9.53-2.27,3.06-4.28,5.6-3.84,9.87-1.6,1.29-3.56,2.87-5.16,4.17v5.25c1.07,1.18,2.33,2.58,3.73,4.12-2.51,2.46-1.14,6.57-4.06,8.36-4.84-1.62-10.35-2.08-13.95-4.95-7.26-5.78-16.29-9.52-20.9-17.59-4.8-1.02-8.58-3.99-12.47-2.29-6.31-4.79-12.73-7.8-19.4-10.35-.72-.28-1.6.19-2.29-.64-3.28-3.96-8.25-4.6-12.69-6.12-6.69-2.29-9.36-4.32-15.32-9.84-3.67-3.4-8.23-6.03-13.77-5.49-.9-1.3-2.94-1.89-2.44-4.44-7.52-2.83-14.87-6.24-21.41-10.78-1.32-1.84,1.41-1.99,1.06-3.52-.36-1.58,1.52-2.15,2.38-3.18.89-1.08,1.97-2.02,2.97-3.01,4.46-2.07,8.34,1.24,12.74,1.4,1.33,4.46,3.92,8.19,8.14,11.45h4.92c1.49,1.94,1.47,4.54,4.38,5.42,2.89-1.22,4.76-3.71,6.02-7.19,8.01,2.04,15.64-2.71,23.39-1.34,3.78-4.33,7.37-8.43,11.35-12.98Z"/>
      <path id="San_Martin" class="cls-2" d="M166.94,212.88c3,4.77,2.6,9.71,7.45,11.97h6.47c1.24-2.61,4.21-3.07,6.61-4.81,1.59,1.73,4.1,2.97,4.4,6,5.99,3.94,12.78,1.4,17.64,2.14,4.19,1.52,6.66,3.12,8.92,6.25-.36,7.38,1.81,16.01-6.06,22.37-.55-3.19-2.97-4.71-4.81-6.71h-8.41c-1.27,2.48-2.58,5.01-4.22,8.19,0,3.12.24,7.04-.06,10.91-.45,5.84,1.67,10.91,4.08,15.95,2.01,4.2,3.52,8.76,6.2,12.49,2.62,3.65,1.46,6.51-.18,9.6-1.48,2.78-3.48,4.97-3.66,8.68-.13,2.68-3.34,5.22-5.15,7.78-3.89-.7-1.84-4.84-3.75-6.29-2.32-1.77-2.31-4.95-4.72-6.55-3.96,1.22-2.52,4.63-2.91,7.34-5.75,2.87-10.75-3.02-16.68-.36v-8.41c-2.67-7.66-9.81-8.36-15.77-10.77-.71.66-1.31,1.22-2.28,2.11-3.4-6.23-4.12-12.79-3.77-19.56-3.12-2.36-3.73-6.57-6.56-8.4-.65-2.22,1.49-2.62,1.53-4.51-5.14-6.58-9.92-13.66-4.36-22.53,2.8,1.63,6.28.78,9.77.98,2.58-1.5,3.87-4.07,5.51-6.54,1.46-2.2,5.14-2.58,5.27-6.28-1.33-.98-1.29-2.85-1.14-4.54-3.32-5.51-9.39-5.71-14.52-8.2-1.62-2.64-2.06-6.36-5.24-8.31v-12.14c6.26,3.56,12.91,5.06,17.09,10.7,4.9.27,9.89-.83,13.31,1.48Z"/>
      <path id="Junin" class="cls-2" d="M197.74,407.29c3.49,2.92,7.4,3.31,9.82,1.81,3.19-1.98,6.8-.49,9.87-2.75,2.47-1.82,5.94-2.32,9.25-1.83,3.76.56,5.97-3.3,9.17-3.45,4.94.97,7.82,4.86,12.88,6.75h5.92c.93,2.03,1.89,4.13,3.03,6.64,6.5,1.02,12.96-3.25,19.23-1.33,4.38-1.79,4.99-6.16,7.72-8.61,1.23,0,2.35,0,3.46,0,3.21,2.29,3.31,6.56,5.85,9.28q-2.31,4.73,1.46,11.44c-1.4,4.76-5.73,7.46-9.13,11.54,3.04,1.48,5.3,2.57,7.87,3.82-1.33,5.21-6.4,9.23-5.14,15.11-2.83,2.11-8.58,3.85-11.08,4.32-2.19.41-4.02-1.91-5.63-.88-1.94,1.24-3.77.35-5.63.82-5.18-3.78-8.35-10.19-15.38-11.88-5.24,2.22-10.65,3.05-16.13.04-6.91,2.65-.68,7.32-1.58,10.77-.6,1.34-1.95.79-2.88,1.34-1.18,1.14,0,2.66-1.03,4.46-4.52,1.5-7.44,5.63-10.38,11.1-.62-1.51-1.02-2.49-1.5-3.66,1.34-1.73.41-4.71.72-7.41-2.05-3.53-4.58-6.76-3.32-10.7-3.9-3.66-9.03-2.98-12.16-6.27-1.02.95-1.62,1.51-2.23,2.08-3-2.4-3.46-6.87-7.39-8.66v-7.29c-.76-.37-1.24-.84-1.68-.8-2.94.27-5.05-1.01-5.06-3.89-.01-2.79-2.15-3.66-3.45-5.38v-5.18c.94-.73,2.03-2.29,3.05-2.25,4.63.18,5.55-2.54,5.46-6.24,1.76-1.45,4.8.64,6.02-2.86Z"/>
      <path id="Ayacucho" class="cls-1" d="M250.62,562.08c-3.92-5.06-4.46-11.6-9.84-14.83-1.35-.29-2.05.6-3.03,1.67-1.89-1.68-.07-4.54-2.38-6.38-1.82-1.46,1.28-3.72,1.57-5.94-.47-.57-.98-1.19-1.67-2.04,3.58-3.48,8.32-3.76,13.03-4.49,1.23-6.22-.03-12.3-2.21-19.81-.73-.73-2.63-2.64-4.09-4.1-.25-2.51,1.61-2.81,2.07-4.08,2.14,1.13,4.15,2.2,6.05,3.21,1.96-.31,2.83-1.64,3.56-3.08.26-1.38-.89-1.92-1.52-2.67,1.46-3.26,4.36-2.71,6.28-2.66,4.06-.49,2.32-6.3,6.45-5.16,1.99-3.51-1.16-6.48.36-9.91,1.26-2.85-2.89-5.81-1.2-9.24-3.04-1.56-3.09-5.79-6.7-6.46-.71-3.09-.72-5.96,2.72-8.01,2.79.57,3.92,3.48,6.22,5.08,2.57.28,5.25.46,7.88-1.9,1.91,2.08,3.93,3.53,5.02,6.84,1.19,3.63,3.04,8,7.83,9.18.38,5.28,4.26,9.73,3.62,15.26,3.35.37,3.63,4.35,6.74,5.49,2.44.9,2.39,4.91,4.81,6.8-7.72-.14-12.52-5.22-17.64-9.63-1.76-.43-2.4,1.07-3.7,2.17v15.83c.87,1.23,2.42,2.21,4.4,2.55-.51,1.92-2.67,4.04-.94,5.67,4.75,4.46,4.76,10.98,7.24,16.36,1.95,4.22,2.19,10.1-.57,15.06-.49.88-.31,2.12-.5,3.67,1.37,1.03,2.92,2.19,4.68,3.51,1.94-.86,4.76-1.69,6.03-4.2,3.15-.81,6.04.59,8.99-1.68,2.11-1.62,4.82,1.25,7.37,2.25-1.73,1.89-5.32-.3-6.57,4.2v9.07c-1.71,1.92-3.79,3.06-3.85,5.57-1.77,1.2-3.79.05-5.9.84-.23.66-.57,1.64-1.07,3.06-7.75-1.09-14.51,4.52-22.38,3.26-.58,2.28-1.32,3.98-3.04,5.06-1.67-1.31-3.14-2.78-2.98-4.72-2.6-1.05-3.11,1.94-5.26,1.34-3.68-2.83-6.81-6.36-8.16-11.23-2.55-.54-4.54-2.83-7.7-2.22v-8.54Z"/>
      <path id="Amazonas" class="cls-2" d="M111.33,128.13c.65-.72,1.39-1.54,2.3-2.55.41,1.19.75,2.16,1.08,3.14,1.25.85,2.62.35,4.56.31-.06-3.93.06-8.35,3.62-10.72,3.1-2.06,2.56-7.54,8.02-7.67-.03,5.48,1.7,10.44,4.32,14.94,2.06,3.54-.14,7.11,1.11,10.52,1.93,3.44,3.66,6.92,3.23,11.2-.28,2.77-.05,5.58-.05,8.38q0,9.47-6.72,16.5c1.16,3.09-3.41,5.57-1.34,8.34,2.34,3.14-.17,7.15,1.59,9.34,2.08,2.59-.41,6.45,3.44,7.45-3.47,5.66-1.29,11.3-2.04,16.2,2.57,4.12,3.68,8.8,7.81,11.36,3.39-.6,5.7,2.76,9.03,1.9,1.38,3.1,3.87,5.12,3.28,8.73-1.08,1.79-4.6,1.29-4.94,4.17-.3,2.56-2.8,3.26-3.93,5.09-3.99-2.63-8.3-.91-12.66-1.55-.73,5.45,1.1,10.91-2.94,15.23h-4.85c-1.72-2.15-1.39-4.05.58-5.56-2.31-4.69-4.59-9.3-6.95-14.08-5.29-1.88-7.8-6.46-9.98-11.77-5.52-2.13-9.73-6.24-12.48-11.19.86-4.71,3.51-8.29,6.25-12.17-.8-4.5,1.49-9.6-1.8-14.16,1.46-2.12,1.82-4.81,3.67-6.36-.71-4.5-3.42-7.59-4.29-11.51-.48-2.18-1.32-3.75.06-5.8,1.4-2.09.72-4.03-.5-5.24,4.02-10.92,10.81-20.53,11.54-32.45Z"/>
      <path id="Ancash" class="cls-2" d="M143.38,402.1c-2.77-1.97-1.89-3.51-2.54-5.69-1.25-.96-3.21-2.47-5.13-3.95,1.07-1.17,1.62-1.78,2.13-2.35.18-2.49-1.48-3.37-3.19-4.08-1.82-.02-2.24,1.66-3.39,2.37-.11,1.87-.21,3.76-.33,5.85-.99,0-1.91.28-2.46-.06-.92-.57-1.89-1.39-2.34-2.34-3.44-7.23-6.86-14.47-10.03-21.82-.61-1.41-.09-3.31-.09-5.02-5.68-4.32-4.83-11.37-7.37-17.34-.46-.1-1.22-.26-2.1-.45-1.34-1.64-.27-3.67-.78-6.38-1.36-1.1-3.29-2.66-5.12-4.14.83-2.99,2.98-4.98,2.14-7.42,4.58-3.53,9.35-4.94,14.53-6.69-.95-9.04,6.48-13.48,11.1-19.72,2.47-1.07,5.95-.11,8.07-2.8,2.25,1.47.74,3.48,1.88,5.25,6.77,2.7,8.91,9.26,11.21,15.66.94,2.59,4.7,10.16,5.65,11.07.4.39.76,1.09,1.19,1.14,3.88.45,5.06,4.64,8.45,5.94,1.88.72,3.32,2.61,4.91,3.93-6.77,6.12-5.29,16.29-11.86,22.03.89,4.01,4.71,6.93,3.17,11.67,1.3.99,2.62,2,3.91,2.99-1.21,1.36-2.47,2.17-2.03,3.85-2.32,1.14-4.65,2.28-5.84,2.86-2.83,1.73-2.7,3.4-2.4,4.92-2.91,4.74-8.74,5.58-11.36,10.7Z"/>
      <path id="Piura" class="cls-2" d="M28.01,152.77c1.22,1.77,3.55,2.65,4.12,4.72-.38,2.09-2.08,2.79-3,4,1.57,1.31,3.15,2.62,5.37,4.47,3.29-.39,5.85-4.19,9.57-7.51,2.39,4.63,7.91,3.57,10.47,7.47,2.34.02,4.9,1.06,6.76-1.36,3.01,1.63,5.33,4.62,5.68,7.37.68,5.34,3.86,8.66,6.85,11.58,1.2,3.98-1.94,5.34-2.78,6.44-.84,2.85,1.51,3.08,1.35,4.69-.16,1.66.67,3.99-.16,4.91-3.03,3.34.26,8.28-3.45,11.47,1.2,2.53,2.8,5.15,1.63,8.27-3.43-1.65-7.6-.61-11.8-4.22-.37-.49.59-2.5.28-4.52-1.93-1.81-3.96-3.72-6.17-5.8h-3c-.77.5-.65,1.37-.93,2.09-1.02,2.54,3.23,3.45,1.61,6.33-2.33,5.21-8.2,2.84-12.13,5.12-3.72,3.66-8.28,6.66-9.73,12.41-.46,1.8-2.88,3.11-4.19,4.43-6.6-1.83-9.61-8.42-15.2-8.92-2.67-2.28-2.91-4.77-4.1-6.91.78-.84,1.52-1.64,2.32-2.51,1.61.6,3.07,1.84,5.76,1.18.68-1.03,1.76-2.66,3.65-5.5v-6.64c-1.48-2.13-2.38-4.97-4.75-6.95-2.35-1.96-4.38-4.3-6.67-6.58v-3.48c.78-1.54,2.48-.12,3.11-2.16v-3.1c-3.61-2.1-4.69-6.75-7.88-9.49-2.13-5.91,2.16-11.18,1.11-17.51,2.8-.11,4.42-2.29,6.42-4.25,2.44,1.7,4.98,2.77,7.71,2,2.98-.84,4.93,2.11,7.68,1.86,2.17-.28,2.77-2.57,4.48-3.39Z"/>
      <path id="Huanuco" class="cls-1" d="M231.77,363.71c-4.89,4.26-10.26,3.8-14.87,5.51-1.29.48-1.81-1-2.45-1.46-3.29,1.8-7.6,1.84-9.41,6.25.29,1.92-.89,4.55.62,6.76,1.71,2.51,1.4,4.51-1.16,6.57-4.68,2.55-8.89-3.97-13.34-.85l-3.63-3.63h-10.54c-.82,3.1-2.81,5.13-5.28,6.54-2.48.2-1.48-2.03-2.33-2.75-.74-.63-1.89-.77-3.11-1.22v-9.05c-1.03-.23-1.8-.4-3.13-.69-.31-3.7.43-7.88-2.15-11.11,5.26-6.21,5.25-15.07,12.19-19.57-.39-1.5.61-3.11-.78-4.1-5.16-3.67-10.37-7.26-15.75-11-.66-3.7-3.97-6.35-6.08-10.5h10.63c.5.28,0,1.22.21,2.11,1.51,1.8,3.67-.05,5.61,1.28,1.12-1.54,2.1-2.89,3.14-4.33,2.15,3.04,4.83,2.14,7.16,2.05,2.29-.09,3.58,2.75,6.77,1.42.96-1.4,2.38-3.45,3.44-4.99,5.35,1.83,3.45,5.5,4.02,7.36,1.14,1.43,1.83,2.3,2.36,2.96,2.75.33,3.42-1.98,5.15-3.19,4.09,3.03,4.68,7.32,4.09,12.41,2.8,1.89,2.93,5.07,3.9,8.14.81,2.56,2.9,5.66,5.26,7.78.68.03,1.27.21,1.77.06,4.94-1.42,13.22-7.74,16.09-12.09,2.18-3.3,4.21-6.76,6.76-9.75,3.59-4.21,8.75-6.18,13.69-8.31,1.85-.8,3.05.73,3.67,1.4-1.58,1.58-3.2,3.2-4.82,4.82.37.36.74.72,1.12,1.07-1.31,7.31-2.62,14.62-3.94,21.99,3.35,1.78,3.5,5.4,5.8,7.64-.87,1.03-1.36,1.66-1.91,2.24-.37.4-.81,1.04-1.22,1.05-5.97.08-11.61,3.52-17.58,1.21Z"/>
      <path id="Cajamarca" class="cls-2" d="M74.05,246.69v-4.14c-.62-1.23-2-.61-2.9-1.26-.93-1.78-.34-3.71-.38-5.6,1.18-1.69,3.26.05,4.54-1.18,1.21-1.16,2.37-2.36,3.67-3.66-.46-.56-.93-1.12-1.5-1.81-.76-2.43,3.1-3.92,1.52-6.7-6.6-3.6-6.85-4.26-6.39-17,.55-1,1.5-.47,2.47-.72,1.34-2.14,1.35-5.21.42-6.95-1.28-2.38-1.37-4.57-1.44-6.97,1.23-2.02,3.87-3.1,3.88-5.81,2.71-1.39,4.52,1.13,6.64,1.44,2.81-1.28,2.92-5.09,6.16-5.78v-6.76c1.8-.93,3.6-1.86,5.31-2.75,3.76,2.23,2.34,6.84,4.79,9.63.52.59.32,2.29-.13,3.18-2.93,5.78-1.53,11.44.34,17.43-1.65,3-3.56,6.25-5.48,9.14-2.81,4.24-.69,7.2.66,10.39.81,1.91,2.74,3.83,4.65,4.68,5.07,2.25,7.58,6.31,8.73,10.56,2.46,2.62,5.01,3.32,7.39,4.12,3.08,6.48,7.61,12.51,5.5,19.86,2.84,5.22,5.67,9.89,6.99,14.49-.13,3.18-3.77,3.45-3.35,6.07.38,2.39-1.25,3.45-2.63,4.66-1.29.3-2.17-.27-2.91-1.34-1.75.92-3.82,1.21-5.32,3-3.09-3.36-8.64-2.15-11.55-6.45h-13.93c-.92.92-1.91,1.91-2.93,2.93-.35-.25-.94-.44-1.02-.76-.91-3.8-3.01-6.77-6.12-9.11-2.55.73-4.18-.68-5.63-2.49.55-.59,1.1-1.19,2-2.16-4.29-3.7-.23-7.58-.1-11.79,2.08-1.99,4.28-4.1,6.47-6.19-1.45-1.45-2.83-2.83-4.21-4.22-1.39,0-2.79,0-4.19,0Z"/>
      <path id="Lima" class="cls-1" d="M145.56,402.86c2.51-4,7.61-5.15,10.34-8.96,1.17-1.63,1.65-3.77,2.44-5.68,1.35-1.64,4.24,1.19,4.85-1.79,3.84.13,4.66,4.3,7.79,5.05.78,6.54,6.18,11.72,5.47,18.8,1.09,1.15,2.23,2.34,3.39,3.56v8.33c4.08,3.58,2.82,11.06,9.76,13.03-.3,6.95,6.57,10.18,8.97,16.38,4.44-.26,8.74-.16,12.67,3.65.25,4.21,3.03,8.05,5.19,12.32-2.24,1.6-1.03,4.25-1.42,6.41,1.01,1.76,3.32,2.37,3.46,4.62-.85,1.83-2,3.19-4.38,3.24-1.57,1.67.37,5.15-3.94,6.52-1.73-.33-4.76,1.12-7.1-.88-3.78,3.78-7.64,7.64-11.75,11.75-4.78-5.39-11.04-8.79-9.68-16.69-4.6-3.38-6.49-8.38-8.69-12.84q4.05-10.18.44-18.74c.49-.85.97-1.69,1.51-2.63-.44-2.38-2.86-3.21-4.32-5.4-1.01,1.4-1.94,2.71-2.81,3.91-1.27-.87-1.71-1.86-1.28-2.46,1.14-1.6,1.97-3.2,1.61-5.26-.99-2-3.02-.43-4.4-1.23-2.84-1.17-1.65-5.37-5.13-6.17-1.54.83-2.25,2.79-3.25,4.98-3.37-6.69-8.34-11.31-15.82-13.28.97-10.07-2.69-18.09-8.33-25.18,0-.49-.12-.86.02-1.03.69-.86,1.44-1.66,2.16-2.47,1.38.65,2.72,1.27,4.23,1.97.86,1.65-.62,4.5,1.92,5.41,2.09,1.3,4.07.5,6.11.76Z"/>
      <path id="Pasco" class="cls-2" d="M259.84,402.56c-4.54,2.72-9.21,1.91-13.94,1.88-1.23-2.58-4.22-3.01-6.61-4.82-2.83-.17-5.76.16-8.97,1.26-3.09,1.05-6.38,2.77-10.11,2.03-2.95-.59-5.53,1.41-8.21,2.3-4.85,1.61-9.4,1.51-14.65-1.03-.72,1.21-1.58,2.64-2.12,3.54-2.79.13-4.67.21-6.82.31v5.48c-1.37,1.72-2.88.81-4.44,1.16-1.17-1.36-2.43-2.83-4.09-4.77,1.4-6.58-6.08-10.77-5.43-17.55,1.94-1.94,4.37-4.37,7.83-7.83-.28,0,1.35,0,3.65,0,1.13,1.54,2.6,3.55,3.04,4.16,5.09,1.57,8.44-.07,12.09,2.12,3.03,1.82,6.25-1.78,9.4-3.78-2.99-4.37-2-9.06-2.04-13.61.8-.8,1.59-1.59,2.38-2.38.27-.03.53-.08.8-.09,6.41-.13,13.05,1.04,18.7-3.36,2.05,1.04,3.71-2.33,6.26-.14,2.08,1.77,4.17-2.02,6.72-1.54,4.05.77,6.98-1.93,10.37-3.38,1.68-.13,2.06,1.63,3.38,2.41.24,3.31-.31,6.79,1.63,10.05,1.64,2.75,1.4,6.14,1.96,9.26.72,4.04.17,9.42,6.78,10.79-2.62,2.62-5.03,5.03-7.54,7.54Z"/>
      <path id="La_Libertad" class="cls-2" d="M114.49,321.95c-7.7,1.39-11.81,3.94-14.54,9.25-.93-2.03-1.73-3.77-2.52-5.51-.69-.74.93-2.36-.15-4.6-1.01-2.08-3.03-4.28-5.86-5.81-1.33-5.47-3.62-10.36-7.67-14.46-4.29-4.35-10.01-7.26-13.02-13.72v-4.31c-1.58-1.49-3.2-3.02-4.97-4.7.15-4.02-.5-7.9-4.32-11.17,3.53-2.63,4.72-7.36,10.52-6.71.75,4.1,1.15,8.21-1.5,12,2.77,4.5,8.9,2.68,11.86,7.56.06,1.1.17,2.98.28,4.86.79.79,1.59,1.58,2.38,2.37,1.12,0,2.24,0,3.34,0,.77-.54.93-1.31.78-2.87,3,.17,5.36-1.57,8.96-.83,3.32.68,6.65,1.98,10.87,2.11,1.2,1.47,2.78,3.4,3.93,4.81,3.3.54,3.73-2.14,7.1-3.23h7.09q2.29-3.36,2.57-7.72c1.18-1.64,3.29.23,4.73-1.36-.03-.57.23-1.71-.16-2.02-3.56-2.79-3.29-7.76-6.31-10.91-.69-.72-.1-2.68-.1-4.14,2.1-.55,3.55,2.62,5.79.35.61,3.08,2.43,4.69,4.34,6.53-.55,4.92.42,9.52,4.77,13.15v8.28c4.18,3.12,2.28,8.99,5.72,12.9,5.98-.1,11.77.64,16.02,5.63,1.13,3.47-1.08,7.48,1.72,10.7-3.46,1.91-3.79-2.49-6.58-2.92-1.87,1.47-4.36,2.39-7.01,1.65-5.04-6.53-10.07-13.05-15.1-19.57-2.77,1.88-6.03.97-8.5,1.2-3.46,1.64-2.5,6.25-6.91,6.99-2.63.44-3.14,4.5-4.44,7.08-1.42,2.83-3.71,5.21-3.09,9.14Z"/>
      <path id="Huancavelica" class="cls-2" d="M253.88,467.66c3.8.83,5.46,4.34,8.2,6.42v13.46c-.59,1.24-1.95.66-3.12,1.41v5.21c-1.95,1.82-4,.66-6.61,1.18-1.14,1.41-2.7,3.34-3.97,4.91h-7.35c-.84,1.66-1.66,3.27-2.56,5.03,1.88,1.49,3.81,3.01,5.71,4.51-2.17,5.7,2.08,8.73,2.72,12.84.33,2.13.66,4.63-2.34,5.73-2.78,1.07-6.44-.91-9.05,2.2-5.58-2.8-11.13-5.6-16.75-8.41-.27-2.43-1.34-4.91.33-6.48,2.2-2.06-3.06-3.4.03-5.44,2.04-1.35.81-4,.78-6.4h-9.11c-2.64-4.09,2.91-7.24.78-10.55.62-1.76,1.91-1.34,2.89-1.68,1.25-1.74.33-3.73.64-5.91,1.42-1.37,3.91-2.64,4.48-4.5,2.03-6.69,6.57-11.11,11.89-15.06,3.18-2.36,2.74-6.81,5.25-8.73.53-2.55-2.63-2.99-1.55-4.99.73-1.11,1.16-.3,1.84.02,3.4,1.59,7.05.38,10.57.76,4.78-4.23,7.59.48,11.17,2.23-4.27,5.03-4.92,6.68-4.91,12.23Z"/>
      <path id="Apurimac" class="cls-2" d="M343.97,518.89c3.14,5.44,1.69,10.71,2.1,15.65-2.27,2.51-5.1,4.34-5.93,7.69h-3.01c-2.2,2.2-4.16,4.16-6.29,6.29v3c-.53.27-.98.7-1.45.71-2.79.06-5.58.11-8.37,0-1.37-.05-1.84,1.03-2.56,1.57-1.85-1.06-3.65-2.09-5.57-3.2-4.19.55-7.97,5.21-13.4,2.17-1.26.84-2.93,2.11-2.39,4.62-1.42-.2-2.35.24-3.16-1.18.79-2.95,2.87-5.85.41-9.97-1.71-2.88-.33-7.6-.33-11.65-.98-.88-2.02-1.8-3.39-3.03,1.74-6.01-5.57-10.24-3.03-16.86-4.33-2.52-3.51-7.4-5.43-9.84.1-3.26,2.2-3.43,2.84-5.77,5.19,5.18,10.62,8.2,17.82,9.08,2.95-3.48,8.84.82,12.67-2.84,5.58.92,9.56,5.12,14.84,6.75,4.9,1.52,8.57,5.96,13.61,6.81Z"/>
      <path id="Ica" class="cls-2" d="M231.63,541.66c.82,2.35,1.85,3.77,2.03,5.8.47,5.28,2.14,5.86,7.55,3.23,2.15,4.47,5.8,8.06,7.08,13.59q-2.63,5.61-9.14,8.39c-1.84,2.94-1.75,7.39-6.51,8.36-1.4-3.49-1.52-7.45-4.76-10.06-1.17-.14-2.48-.29-4.05-.47-2.17-11.02-13.47-12.36-20.42-20.05-.12-.73-.19-2.79-1.73-4.57-3.08-3.58-4.96-7.98-7.45-11.96-.95-1.51-2.61-1.73-4.15-2.38-1.4-8.25,3.14-15.27,4.59-23.36-2.16-2.3-1.36-5.65-1.39-8.85,2.96-2.96,5.92-5.92,8.88-8.88.2-.02.49-.12.58-.03,2.17,2.27,4.27,2.1,6.37-.2,3.82,5.51-3.9,9.38-2.21,14.48,2.99,1.6,6.92-1.1,9.74,3.24-.57,2.26,1.02,5.14-1.35,8.45-1.57,2.19-.08,5.71,2.61,8.59,5.47-.11,9.08,6.09,15.74,7.52-.83,2.92,1.45,6.27-2.02,9.15Z"/>
      <path id="Tacna" class="cls-2" d="M384.54,674.28c1.85-2.75,4.7-3.51,7.47-4.62,2.89-4.42,6.04-8.85,8.05-14.17,4.04-1.42,6.28-5.44,9.58-8.11q.2-5.9,2.35-9.15c2.75.27,2.44,2.94,3.59,4.59h5.37c2.73,11.52,13.55,11.9,22.26,15.19v6.28c-1.15.72-3.02,1.9-6.05,3.81.49,0-.91,0-3.07,0-.95,1.3-2.22,3.06-3.38,4.65,2.74,1.6-.87,6.29,2.63,8.23-1.21,4.46-2.5,9.08-6.78,11.37-4.79,2.58-10.16,3.29-15.95,2.44-2.11-2.84-6.26-3.31-8.88-5.69-2.89-2.61-7.07-4.41-8.49-7.95-1.73-4.31-7.85-1.34-8.7-6.86Z"/>
      <path id="Moquegua" class="cls-2" d="M381.97,624.34h8.92c.39-3.51,1.7-6.32,3.89-9.63v-8.41c4.81,2.59,9.76.65,14.46,1.58,1.31,4.75,2.6,9.53,3.96,14.29.56,1.98,6.96,8.14,10.04,9.81-1.15,1.58-2.63,2.66-4.75,2.95-.15,1.33-.3,2.65-.55,4.86-1.56-1.39-2.82-2.5-3.97-3.52h-5.06c-1.14,1.26-.67,3.34-2.44,4.12,0,2.24,0,4.48,0,6.72-1.19,1.19-2.23,3.16-3.59,3.42-4.87.9-4.81,6.24-8.17,8.35.23,5.77-4.29,7.55-8.2,9.91-.93.56-1.6,1.55-2.46,2.41-2.66.47-5.35.83-7.64-2.2v-5.93c-1.5-2.71-2.51-4.53-3.57-6.46,1.23-1.92,1.44-4.46,3.38-6.11v-6.69c-.92-1.6-3.24-2.2-3.4-5.11,5.56-2.74,4.92-9.89,9.15-14.37Z"/>
      <path id="Lambayeque" class="cls-1" d="M79.99,251.32c-4.99.84-5.74,5.2-8.39,7.02-1.72.37-2.43-.51-3.4-1.58-2.45,2.42-4.88,4.83-7.46,7.38-5.77-7.29-10.7-14.36-17.2-20.18-5.79-1.47-11-4.37-16.64-7.83,4.3-3.89,5.02-9.85,9.66-13.32,4.51-3.36,10.26-3.62,15.52-6.09v-8.05c1.75,1.47,3.32,2.79,5.24,4.4v4.48c2.35.34,3.85,1.89,5.75,3.98,4.53-1.28,8.56,3.57,14.23,2.22-1.1,1.28-2.2,2.57-3.24,3.78-.31,1.35.41,2.15,1.74,3.19-2.13,1.02-4.05,1.95-5.97,2.87-1.71.65.32,3.65-2.67,3.39,4.32,9.57,5.87,9.96,12.81,14.33Z"/>
      <path id="Tumbes" class="cls-2" d="M19.07,138.79c3.8-3.82,8.94-4.29,10.25-9.39,2.18-.9,5.08.98,6.88-1.88.78.73,1.54,1.43,2.35,2.19.9,3.82-1.07,8.17,2.59,11.8-2.05,1.52-3.81,2.81-6.33,4.67-.19.04-.89-.85-1.63-1.66-4.28,1.27-5.38,5.97-8.81,8.12h-11.62c-.82-.82-1.61-1.61-2.39-2.39,2.03-2.16,2-6.33,6.19-6.24.24-2.6,2.69-4.01,2.54-5.22Z"/>
      <path id="Callao" class="cls-1" d="M170.86,446.31c1.14,2.51-.05,3.36-.91,4.16,1.95,4.62,4.24,9.07,2.5,15.01-3.64-2.56-5.59-7.08-10.61-7.29-.68-4.81-3.42-8.98-4.93-13.63-1.14-3.51-.96-4.28,1.76-7.99.92,1.68,1.77,3.44,4.27,3.7v8.63c1.38,1.61,2.88.63,4.18.97,1.17-1.11,2.34-2.23,3.74-3.56Z"/>
    </g>
  </g>
</svg>